HIERARCHY
ROOT Hips
{
  OFFSET 0 0 0
  CHANNELS 6 Xposition Yposition Zposition Zrotation Yrotation Xrotation
  JOINT LeftThigh
  {
    OFFSET 8.409438 0 -5.917753
    CHANNELS 3 Zrotation Yrotation Xrotation
    JOINT LeftLeg
    {
      OFFSET 0 0 -42.358652
      CHANNELS 3 Zrotation Yrotation Xrotation
      JOINT LeftFoot
      {
        OFFSET 0 0 -39.357303
        CHANNELS 3 Zrotation Yrotation Xrotation
      }
    }
  }
  JOINT RightThigh
  {
    OFFSET -8.409438 0 -5.917753
    CHANNELS 3 Zrotation Yrotation Xrotation
    JOINT RightLeg
    {
      OFFSET 0 0 -42.358652
      CHANNELS 3 Zrotation Yrotation Xrotation
      JOINT RightFoot
      {
        OFFSET 0 0 -39.357303
        CHANNELS 3 Zrotation Yrotation Xrotation
      }
    }
  }
  JOINT SpineLow
  {
    OFFSET 0 0 4.719101
    CHANNELS 3 Zrotation Yrotation Xrotation
    JOINT SpineMid
    {
      OFFSET 0 0 12.899191
      CHANNELS 3 Zrotation Yrotation Xrotation
      JOINT Chest
      {
        OFFSET 0 0 12.899191
        CHANNELS 3 Zrotation Yrotation Xrotation
        JOINT LeftShoulder
        {
          OFFSET 7.550562 1.41573 9.438202
          CHANNELS 3 Zrotation Yrotation Xrotation
          JOINT LeftArm
          {
            OFFSET 9.155056 0 4.247191
            CHANNELS 3 Zrotation Yrotation Xrotation
            JOINT LeftForearm
            {
              OFFSET 0 0 25.771955
              CHANNELS 3 Zrotation Yrotation Xrotation
              JOINT LeftHand
              {
                OFFSET 0 0 25.197169
                CHANNELS 3 Zrotation Yrotation Xrotation
              }
            }
          }
        }
        JOINT RightShoulder
        {
          OFFSET -7.550562 1.41573 9.438202
          CHANNELS 3 Zrotation Yrotation Xrotation
          JOINT RightArm
          {
            OFFSET -9.155056 0 4.247191
            CHANNELS 3 Zrotation Yrotation Xrotation
            JOINT RightForearm
            {
              OFFSET 0 0 -25.771955
              CHANNELS 3 Zrotation Yrotation Xrotation
              JOINT RightHand
              {
                OFFSET 0 0 -25.197169
                CHANNELS 3 Zrotation Yrotation Xrotation
              }
            }
          }
        }
        JOINT Neck
        {
          OFFSET 0 0 15.101124
          CHANNELS 3 Zrotation Yrotation Xrotation
          JOINT Head
          {
            OFFSET 0 0 11.325843
            CHANNELS 3 Zrotation Yrotation Xrotation
            End Site
            {
              OFFSET 0 0 14.157303
            }
          }
        }
      }
    }
  }
}
MOTION
Frames: 14
Frame Time: 0.01
0.0  101.685394  0.0  -0.867953  -14.136244  -106.425148  36.552175  -26.742018  3.233598  -1.880798  5.941649  35.94667  10.513815  4.107993  5.043698  -5.29705  11.107252  -6.26696  8.189673  2.777711  28.530226  13.336562  4.765221  -1.644209  -0.608876  -1.375788  2.420931  -1.80186  -3.694988  6.657969  -1.80186  -3.694988  6.657969  -8.746516  27.970798  7.366707  85.276617  65.298288  157.771088  -31.600794  -5.390915  100.709304  69.053229  3.629826  -26.799644  17.534582  -6.351675  30.105677  66.195797  56.191024  -24.614431  -15.887542  -23.392508  -90.110422  63.267564  7.982355  -6.813203  10.933578  2.560262  -1.305011  8.204329  1.897581  -1.024823  
0.0  101.685394  0.0  -0.783991  -14.097268  -106.408465  36.6837  -26.731937  3.020286  -2.006391  6.110973  36.323261  10.481217  4.144164  4.969309  -5.403108  11.078136  -6.536599  8.430129  2.816781  29.063164  13.353429  4.844347  -1.663536  -0.631442  -1.38301  2.410148  -1.863675  -3.712744  6.629969  -1.863675  -3.712744  6.629969  -8.579824  28.069697  7.649627  85.72748  65.245666  158.330944  -31.551391  -6.267122  100.907643  68.471073  4.441749  -26.575349  17.551115  -6.31735  30.197163  66.236688  56.597108  -24.515243  -15.746712  -23.189969  -90.564128  63.146327  8.028727  -7.103271  11.066729  2.604506  -1.324741  8.304308  1.930153  -1.04099  
0.0  101.685394  0.0  -0.74252  -14.177341  -106.449312  37.089986  -26.904513  2.81402  -2.003518  6.248467  36.807218  10.236056  4.149955  4.755846  -5.596706  11.007969  -6.881562  8.875766  2.754836  29.705612  13.34222  4.989718  -1.670848  -0.625825  -1.38324  2.409989  -1.84834  -3.713941  6.62923  -1.84834  -3.713941  6.62923  -8.326485  28.131658  7.969318  85.541199  65.155046  158.369996  -31.608654  -7.505975  101.161232  67.878002  5.627264  -26.702987  17.499782  -6.386545  30.218163  66.209533  57.01961  -24.466431  -15.50688  -23.106462  -91.076162  63.02214  8.114811  -7.48017  11.190228  2.553263  -1.36438  8.39703  1.890729  -1.070327  
0.0  101.685394  0.0  -0.600128  -13.977028  -106.417583  37.323683  -26.914916  2.601979  -2.28978  6.518068  37.077191  10.173369  4.183417  4.670004  -5.551916  11.069985  -7.178932  9.041588  2.74589  30.339703  13.112985  5.102127  -1.706095  -0.647181  -1.373854  2.407006  -1.905573  -3.686259  6.621913  -1.905573  -3.686258  6.621912  -8.304449  28.228652  8.09838  85.230182  65.11604  158.210988  -31.742346  -8.956103  101.478755  67.321034  7.11605  -26.954064  17.586698  -6.385103  30.249683  65.983607  57.49883  -24.575636  -15.351156  -22.991039  -91.537832  62.930547  8.224662  -7.910054  11.297948  2.588676  -1.461391  8.478266  1.915281  -1.144213  
0.0  101.685394  0.0  -0.488397  -13.727044  -106.335982  37.669241  -26.962019  2.361397  -2.369152  6.698299  37.457526  9.818222  4.162306  4.436986  -5.806876  11.125493  -7.631878  9.36792  2.633871  31.073187  12.723367  5.260465  -1.758968  -0.679357  -1.357103  2.390573  -1.990892  -3.637814  6.578093  -1.990892  -3.637814  6.578092  -7.965781  28.387461  8.34022  84.147205  65.093842  157.46793  -31.942986  -10.446963  101.8119  66.714243  8.683891  -27.148275  17.670733  -6.402178  30.24336  65.917361  57.934711  -24.652213  -15.235175  -22.962593  -91.992083  62.887758  8.292902  -8.311278  11.448531  2.567143  -1.540413  8.591495  1.897305  -1.203745  
0.0  101.685394  0.0  -0.36636  -13.282926  -106.154258  37.819078  -26.852631  2.026698  -2.691842  7.016489  37.65422  9.759964  4.152526  4.361575  -5.914655  11.169483  -8.007524  9.421354  2.701073  31.708232  12.521699  5.425568  -1.754502  -0.716674  -1.346023  2.372721  -2.090782  -3.604427  6.530845  -2.090782  -3.604428  6.530845  -8.044663  28.48407  8.306059  83.353932  65.131221  156.866703  -32.185879  -11.895799  102.13449  65.94628  10.09918  -27.166533  17.817341  -6.327572  30.181148  65.658337  58.40278  -24.885721  -15.172276  -23.05597  -92.429598  62.838128  8.278652  -8.665371  11.554556  2.64636  -1.670531  8.671685  1.954033  -1.303302  
0.0  101.685394  0.0  -0.293  -12.784055  -105.916697  38.104823  -26.807273  1.599598  -2.928443  7.290324  37.941283  9.470267  4.118807  4.168384  -6.168295  11.177354  -8.420988  9.468778  2.823658  32.308692  12.421755  5.596804  -1.731377  -0.76036  -1.337575  2.339303  -2.207527  -3.578196  6.441429  -2.207527  -3.578196  6.441429  -7.824363  28.63649  8.390448  82.019848  65.155766  155.948963  -32.408035  -13.300597  102.431798  64.969855  11.328834  -27.00006  17.954209  -6.26058  30.080402  65.600526  58.792983  -24.992347  -15.197786  -23.267581  -92.852559  62.694742  8.185813  -8.936296  11.677497  2.711296  -1.767144  8.764413  2.000593  -1.377558  
0.0  101.685394  0.0  -0.196926  -12.106564  -105.633391  38.283445  -26.675722  1.111451  -3.35664  7.670287  38.129038  9.329655  4.104247  4.070655  -6.344879  11.251653  -8.740499  9.476933  2.940709  32.837706  12.110341  5.715322  -1.73684  -0.816885  -1.325254  2.302933  -2.358846  -3.540373  6.34442  -2.358846  -3.540373  6.34442  -7.898982  28.656449  8.291211  81.184036  65.245788  155.406584  -32.629505  -14.445323  102.641314  64.053423  12.358584  -26.481144  18.169474  -6.162139  29.957019  65.382947  59.189082  -25.199191  -15.206212  -23.510753  -93.350984  62.487967  8.01812  -8.934279  11.797262  2.835471  -1.87708  8.854948  2.091319  -1.462953  
0.0  101.685394  0.0  -0.14123  -11.223646  -105.338524  38.273348  -26.544973  0.593448  -3.481346  7.931295  38.520958  8.749512  4.027296  3.728924  -6.651846  11.355608  -9.049047  9.627982  2.80096  33.478286  11.518388  5.976873  -1.80731  -0.881361  -1.308743  2.265006  -2.531449  -3.490582  6.24332  -2.531449  -3.490582  6.24332  -7.954562  28.555411  8.166108  80.322109  65.334489  155.020389  -32.887757  -15.282272  102.781338  63.308017  13.296438  -25.556565  18.305267  -6.116728  29.764686  65.050509  59.560348  -25.46972  -15.139936  -23.987978  -93.953943  62.398054  7.724481  -8.670632  11.852605  2.930373  -1.993431  8.897185  2.160112  -1.552326  
0.0  101.685394  0.0  -0.080839  -10.14316  -105.093461  38.105031  -26.45489  0.06495  -3.829041  8.364789  38.768857  8.51104  4.01059  3.620334  -6.911128  11.544597  -9.247818  9.379698  2.95559  34.006034  11.127396  6.11355  -1.83488  -0.951382  -1.285637  2.231231  -2.718839  -3.422289  6.153459  -2.718839  -3.422289  6.153459  -8.21243  28.42954  7.975387  79.63544  65.488779  154.730073  -33.197041  -15.646282  102.940322  62.989226  14.299174  -24.182064  18.469284  -6.123689  29.598188  64.354367  60.008862  -26.011713  -14.89914  -24.798037  -94.699851  62.542606  7.299015  -8.1296  11.838207  3.035816  -2.101908  8.887143  2.237177  -1.635655  
0.0  101.685394  0.0  -0.053958  -8.812641  -104.851419  37.7928  -26.356995  -0.507321  -3.979369  8.709248  39.196647  8.058658  3.970798  3.4274  -7.237959  11.59825  -9.32751  9.094344  3.281979  34.451115  10.744695  6.240888  -1.840087  -1.049194  -1.263045  2.185618  -2.981701  -3.353566  6.032493  -2.981701  -3.353567  6.032493  -8.47158  28.356457  7.833383  79.049547  65.737277  154.515815  -33.307051  -15.777122  103.004999  63.007094  15.226547  -22.683521  18.592212  -6.133549  29.428022  63.577598  60.444523  -26.703974  -14.724544  -25.65237  -95.35726  62.619726  6.777829  -7.687349  11.782915  3.119788  -2.166065  8.846192  2.299132  -1.685104  
0.0  101.685394  0.0  -0.086561  -7.10829  -104.510374  37.257562  -26.143551  -1.245715  -4.385893  9.171573  39.483351  7.770206  3.930591  3.310653  -7.813597  11.814515  -9.431502  8.725245  3.503767  34.74881  10.197721  6.395469  -1.844524  -1.184524  -1.249274  2.130129  -3.347524  -3.306416  5.886654  -3.347524  -3.306416  5.886654  -8.969289  28.319459  7.54747  78.69052  66.10149  154.405701  -33.304762  -15.945892  103.055036  63.185435  16.020753  -21.30652  18.778753  -6.051534  29.221274  62.585004  60.925592  -27.60813  -14.575491  -26.58317  -96.09855  62.655603  6.132634  -7.261286  11.658529  3.238867  -2.254152  8.753656  2.387223  -1.752776  
0.0  101.685394  0.0  -0.24054  -5.011446  -104.035858  36.630573  -25.915009  -2.253963  -4.837528  9.648875  39.835503  7.533368  3.915484  3.244573  -8.681456  11.943765  -9.486004  8.385936  3.72558  34.863089  9.801441  6.592603  -1.814186  -1.373323  -1.254708  2.069515  -3.861052  -3.307909  5.730429  -3.861052  -3.30791  5.730429  -9.554436  28.342432  7.09683  78.460524  66.52427  154.399174  -33.25042  -16.395048  103.076582  63.336458  16.569727  -20.146116  19.016331  -5.843022  28.838225  61.490575  61.327522  -28.594472  -14.285286  -27.674342  -97.106319  62.65372  5.342105  -6.728292  11.515679  3.398343  -2.398414  8.647725  2.504672  -1.863179  
0.0  101.685394  0.0  -0.558451  -2.487017  -103.42868  35.992283  -25.705773  -3.584594  -5.509449  10.203905  40.122985  7.047832  3.849036  3.063211  -9.786047  11.9701  -9.455103  7.843744  4.009769  34.774796  9.092674  6.795537  -1.8557  -1.610177  -1.270803  1.996057  -4.506266  -3.336195  5.542246  -4.506267  -3.336195  5.542246  -10.310908  28.316391  6.494361  78.239214  66.890189  154.38915  -33.231177  -17.212286  103.054894  63.231586  16.87474  -19.275385  19.287482  -5.624227  28.311184  60.158185  61.65129  -29.711954  -13.745964  -28.942606  -98.477357  62.688629  4.405384  -5.94897  11.320171  3.514581  -2.589567  8.502543  2.589088  -2.007565  
